<?xml version="1.0" encoding="UTF-8"?>
<svg id="Layer_1" data-name="Layer 1" xmlns="http://www.w3.org/2000/svg" viewBox="0 0 594.98 172.94">
  <defs>
    <style>
      .cls-1 {
        fill: #fff;
      }
    </style>
  </defs>
  <polygon class="cls-1" points="108.17 109.76 14 0 0 0 1.09 1.28 86 100.46 55.87 172.94 81.91 172.94 108.13 109.86 108.17 109.76"/>
  <polygon class="cls-1" points="505.21 172.93 475.07 93.04 466.61 93.05 505.21 172.93"/>
  <polygon class="cls-1" points="426.19 125.36 362.34 89.75 403.07 132.38 419.93 172.94 445.96 172.94 429.1 132.38 426.19 125.36"/>
  <polygon class="cls-1" points="217.36 31.14 246.25 100.63 217.35 86.47 281.2 122.08 278.95 116.66 278.95 116.66 230.45 0 230.3 0 204.41 0 204.26 0 132.47 172.69 132.36 172.94 158.4 172.94 158.51 172.69 217.36 31.14"/>
  <polygon class="cls-1" points="425.15 122.08 422.9 116.66 422.9 116.66 374.4 0 374.25 0 348.36 0 348.21 0 289.4 141.46 285.62 132.38 282.7 125.36 218.85 89.75 259.59 132.38 276.45 172.94 302.35 172.94 302.42 172.78 302.46 172.68 361.31 31.13 390.2 100.63 361.3 86.46 425.15 122.08"/>
  <path class="cls-1" d="M558.04,0h-49.92C487.75,0,471.18,17.21,471.18,38.36v32.44c0,21.15,16.57,38.36,36.94,38.36h49.92c20.37,0,36.94-17.21,36.94-38.36v-32.44C594.98,17.21,578.41,0,558.04,0ZM581.37,70.8c0,13.36-10.47,24.23-23.33,24.23h-49.92c-12.86,0-23.33-10.87-23.33-24.23v-32.44c0-13.36,10.47-24.23,23.33-24.23h49.92c12.86,0,23.33,10.87,23.33,24.23v32.44Z"/>
  <polygon class="cls-1" points="450.66 109.7 450.61 109.75 450.66 109.85 476.88 172.93 502.92 172.93 464.32 93.04 450.66 109.7"/>
  <polygon class="cls-1" points="466.01 0 446.3 98.8 466.01 84.81 466.01 0"/>
  <polygon class="cls-1" points="447.33 101.19 448.83 105.48 464.32 89.94 447.33 101.19"/>
  <polygon class="cls-1" points="127.83 0 127.72 .26 101.94 62.28 47.79 0 21.76 0 93.55 82.58 111.13 102.79 111.16 102.72 119.54 82.58 119.59 82.58 119.55 82.54 153.76 .26 153.87 0 127.87 0 127.83 0"/>
</svg>