<?xml version="1.0" encoding="UTF-8"?>
<svg id="Layer_1" xmlns="http://www.w3.org/2000/svg" version="1.1" viewBox="0 0 650 191.79">
  <!-- Generator: Adobe Illustrator 29.8.2, SVG Export Plug-In . SVG Version: 2.1.1 Build 3)  -->
  <defs>
    <style>
      .st0 {
        fill: #fff;
      }
    </style>
  </defs>
  <polygon class="st0" points="317.81 139.05 247.01 99.56 292.17 146.84 310.87 191.8 339.74 191.8 321.05 146.84 317.81 139.05"/>
  <polygon class="st0" points="151.25 191.8 180.12 191.8 180.24 191.51 245.5 34.54 277.54 111.6 245.5 95.9 316.31 135.39 313.81 129.38 313.81 129.38 260.02 0 259.86 0 231.15 0 230.98 0 151.37 191.51 151.25 191.8"/>
  <polygon class="st0" points="119.97 113.99 120 113.91 129.28 91.58 129.34 91.58 129.3 91.53 167.24 .28 167.35 0 138.48 0 138.36 .28 109.77 69.07 49.72 0 20.85 0 100.46 91.58 119.97 113.99"/>
  <polygon class="st0" points="477.43 139.05 406.63 99.56 451.79 146.83 470.49 191.79 499.36 191.79 480.67 146.83 477.43 139.05"/>
  <polyline class="st0" points="341.23 188.21 405.12 34.53 437.16 111.6 405.12 95.89 475.93 135.39 473.43 129.38 473.43 129.38 419.64 0 419.48 0 390.77 0 390.6 0 326.8 153.47"/>
  <polyline class="st0" points="534.83 101.74 538.03 99.66 538.03 191.8 505.83 120.55 534.83 101.74"/>
  <path class="st0" d="M595.77.02h-60.94V0h-21.14v108.21l-20.04,16.32,41.17-26.47v-15.2c13.3,17.84,34.56,29.41,58.47,29.41h4.81c28.62,0,51.9-23.28,51.9-51.9v-6.11C650,24.35,625.67.02,595.77.02ZM627.82,60.37c0,16.39-13.33,29.72-29.72,29.72h-4.81c-27.97,0-50.73-22.76-50.73-50.73v-17.15h53.2c17.68,0,32.06,14.38,32.06,32.06v6.11Z"/>
  <polyline class="st0" points="513.69 146.77 513.69 191.79 513.69 191.8 520.39 191.8 520.39 191.79 534.83 191.79"/>
  <polygon class="st0" points="119.96 121.74 119.96 121.74 119.96 121.74 15.59 0 0 0 71.42 83.3 71.42 106.64 82.19 95.86 85.24 99.42 71.42 113.25 71.42 130.69 93.29 108.81 93.3 108.82 93.3 115.42 71.42 137.3 71.42 157.04 93.3 135.16 93.3 191.8 119.96 191.8 119.96 127.97 144.78 150.95 119.96 121.74"/>
</svg>