<svg id="Layer_1" data-name="Layer 1" xmlns="http://www.w3.org/2000/svg" viewBox="0 0 549.70121 172.21381">
  <defs>
    <style>
      .cls-1 {
        fill: #fff;
      }
    </style>
  </defs>
  <g id="Letters">
    <g id="Y">
      <path class="cls-1" d="M93.667,482.31543a15.00012,15.00012,0,0,1-15-15V391.74756L33.19336,334.98535a14.99993,14.99993,0,1,1,23.41309-18.75683l48.76709,60.873A14.99986,14.99986,0,0,1,108.667,386.48v80.83545A15.00012,15.00012,0,0,1,93.667,482.31543Z" transform="translate(-29.89938 -310.10162)"/>
      <path class="cls-1" d="M118.70215,371.19287a15.00192,15.00192,0,0,1-12.2832-23.59228l21.562-30.86329A15.00011,15.00011,0,0,1,152.57373,333.919l-21.562,30.86328A14.98433,14.98433,0,0,1,118.70215,371.19287Z" transform="translate(-29.89938 -310.10162)"/>
    </g>
    <g id="A">
      <path class="cls-1" d="M170.27881,480.82422a15.01052,15.01052,0,0,1-14.21045-19.81055l47.6001-140.71875a15.00008,15.00008,0,0,1,28.21386-.5664l33.9795,88.56738A15,15,0,1,1,237.85254,419.042l-19.0874-49.75146L184.48633,470.627A15.00589,15.00589,0,0,1,170.27881,480.82422Z" transform="translate(-29.89938 -310.10162)"/>
      <g>
        <line x1="235.11467" y1="137.22455" x2="243.02868" y2="156.71893"/>
        <path class="cls-1" d="M272.93359,481.82422a15.00431,15.00431,0,0,1-13.9038-9.36133l-7.91407-19.49414a15.00018,15.00018,0,1,1,27.79688-11.28516l7.91406,19.49414a15.00849,15.00849,0,0,1-13.89307,20.64649Z" transform="translate(-29.89938 -310.10162)"/>
      </g>
    </g>
    <g id="A-2" data-name="A">
      <path class="cls-1" d="M323.2793,480.82422a15.01052,15.01052,0,0,1-14.21094-19.81055L356.668,320.29492a15.00009,15.00009,0,0,1,28.21387-.5664L418.8623,408.2959A15.00021,15.00021,0,1,1,390.85254,419.042L371.76465,369.29,337.48633,470.627A15.00574,15.00574,0,0,1,323.2793,480.82422Z" transform="translate(-29.89938 -310.10162)"/>
      <g>
        <line x1="388.11467" y1="137.22455" x2="396.02868" y2="156.71893"/>
        <path class="cls-1" d="M425.93262,481.82422a15.00415,15.00415,0,0,1-13.90332-9.36133l-7.91407-19.49414a15.00018,15.00018,0,1,1,27.79688-11.28516l7.91406,19.49414a15.00849,15.00849,0,0,1-13.89355,20.64649Z" transform="translate(-29.89938 -310.10162)"/>
      </g>
    </g>
    <g id="P">
      <g>
        <line x1="445.67948" y1="15.30433" x2="445.67948" y2="100.5747"/>
        <path class="cls-1" d="M475.5791,425.67676a15.00012,15.00012,0,0,1-15-15v-85.271a15,15,0,0,1,30,0v85.271A15.00012,15.00012,0,0,1,475.5791,425.67676Z" transform="translate(-29.89938 -310.10162)"/>
      </g>
      <path class="cls-1" d="M537.12109,404.21H511.51758a12.5,12.5,0,0,1,0-25h25.60351c9.63868,0,17.4795-9.42627,17.4795-21.01269s-7.84082-21.0127-17.4795-21.0127H511.51758a12.5,12.5,0,0,1,0-25h25.60351c23.42286,0,42.4795,20.64111,42.4795,46.0127S560.544,404.21,537.12109,404.21Z" transform="translate(-29.89938 -310.10162)"/>
      <g>
        <line x1="445.86104" y1="137.35216" x2="445.86104" y2="156.84655"/>
        <path class="cls-1" d="M475.76074,481.94824a15.00012,15.00012,0,0,1-15-15V447.4541a15,15,0,0,1,30,0v19.49414A15.00012,15.00012,0,0,1,475.76074,481.94824Z" transform="translate(-29.89938 -310.10162)"/>
      </g>
    </g>
  </g>
</svg>
